<svg width="14" height="14" viewBox="0 0 14 14" fill="none" xmlns="http://www.w3.org/2000/svg">
<path d="M7 0C3.14022 0 0 3.14015 0 7C0 10.8598 3.14022 14.0001 7 14.0001C10.8598 14.0001 14 10.8598 14 7C14 3.14015 10.8598 0 7 0ZM11.0195 5.81764L6.62178 10.2154C6.43479 10.4024 6.18622 10.5053 5.9218 10.5053C5.65738 10.5053 5.40882 10.4024 5.22182 10.2154L2.98048 7.97404C2.79348 7.78705 2.69049 7.53848 2.69049 7.27406C2.69049 7.00957 2.79348 6.761 2.98048 6.57401C3.1674 6.38702 3.41596 6.28403 3.68045 6.28403C3.94487 6.28403 4.19351 6.38702 4.38043 6.57408L5.92173 8.1153L9.61942 4.41761C9.80641 4.23062 10.055 4.1277 10.3194 4.1277C10.5838 4.1277 10.8324 4.23062 11.0194 4.41761C11.4055 4.80372 11.4055 5.43168 11.0195 5.81764Z" fill="#48CC65"/>
</svg>
