<svg width="18" height="20" viewBox="0 0 18 20" fill="none" xmlns="http://www.w3.org/2000/svg">
<path d="M11.8033 12.196L14.9413 10.3844C15.2216 10.2226 15.3176 9.8643 15.1558 9.58402C14.994 9.30379 14.6357 9.20766 14.3554 9.36957L11.2174 11.1812C10.9372 11.343 10.8411 11.7013 11.0029 11.9816C11.1391 12.2174 11.4811 12.3822 11.8033 12.196Z" fill="black"/>
<path d="M17.4458 4.78555L9.2929 0.0785156C9.11158 -0.0261719 8.88826 -0.0261719 8.70697 0.0785156L0.554077 4.78555C0.372788 4.89023 0.261108 5.08363 0.261108 5.29297V14.707C0.261108 14.9164 0.372788 15.1098 0.554077 15.2145L8.70697 19.9215C8.79759 19.9738 8.89876 20 8.99994 20C9.10111 20 9.20228 19.9738 9.2929 19.9215L17.4458 15.2145C17.6271 15.1098 17.7388 14.9164 17.7388 14.707V5.29297C17.7388 5.08363 17.6271 4.8902 17.4458 4.78555ZM13.2663 3.72555L6.28521 7.75602L4.73955 6.86355L11.7206 2.83309L13.2663 3.72555ZM5.69927 8.77086V10.5506L4.15142 9.65688L4.15287 7.87801L5.69927 8.77086ZM8.99994 1.2625L10.5486 2.1566L3.56755 6.18707L2.01892 5.29297L8.99994 1.2625ZM8.414 18.3992L1.43298 14.3687V6.30781L2.98154 7.20184L2.97931 9.99449C2.97916 10.2039 3.09083 10.3976 3.27228 10.5024L5.99228 12.073C6.2974 12.2491 6.57255 12.0763 6.57822 12.073C6.75955 11.9683 6.87119 11.7749 6.87119 11.5655V9.44754L8.414 10.3383V18.3992ZM8.99994 9.32344L7.45701 8.43266L14.438 4.40219L15.9809 5.29297L8.99994 9.32344ZM16.5669 14.3687L9.58587 18.3992V10.3383L16.5669 6.30781V14.3687Z" fill="black"/>
<path d="M14.3555 12.5075L11.2175 14.3191C10.9373 14.4809 10.8412 14.8393 11.003 15.1195C11.1407 15.3579 11.4833 15.5189 11.8034 15.334L14.9414 13.5225C15.2216 13.3606 15.3177 13.0023 15.1559 12.7221C14.9941 12.4418 14.6358 12.3458 14.3555 12.5075Z" fill="black"/>
</svg>
